<svg width="125" height="36" viewBox="0 0 125 36" fill="none" xmlns="http://www.w3.org/2000/svg">
<path d="M8.45 0.349999V28.5H21.95L21.1 35H0.25V0.349999H8.45ZM47.4023 35H40.5523L40.2023 31.65C38.269 34.45 35.5857 35.85 32.1523 35.85C29.719 35.85 27.869 35.1167 26.6023 33.65C25.369 32.1833 24.7523 30.1333 24.7523 27.5V8.45H32.6523V26.5C32.6523 27.8 32.8523 28.7167 33.2523 29.25C33.6857 29.75 34.3357 30 35.2023 30C36.869 30 38.3023 28.9667 39.5023 26.9V8.45H47.4023V35ZM65.1156 7.6C66.949 7.6 68.599 7.86667 70.0656 8.4C71.5323 8.93333 72.9156 9.75 74.2156 10.85L70.8156 15.55C69.149 14.2833 67.4656 13.65 65.7656 13.65C63.999 13.65 62.6656 14.3 61.7656 15.6C60.8656 16.9 60.4156 19 60.4156 21.9C60.4156 24.7 60.8656 26.6833 61.7656 27.85C62.6656 29.0167 63.9656 29.6 65.6656 29.6C66.5656 29.6 67.3823 29.4667 68.1156 29.2C68.849 28.9 69.7323 28.4333 70.7656 27.8L74.2156 32.7C71.5823 34.8 68.599 35.85 65.2656 35.85C62.5656 35.85 60.2323 35.2833 58.2656 34.15C56.299 32.9833 54.7823 31.3667 53.7156 29.3C52.649 27.2 52.1156 24.75 52.1156 21.95C52.1156 19.15 52.649 16.6667 53.7156 14.5C54.7823 12.3333 56.299 10.65 58.2656 9.45C60.2323 8.21666 62.5156 7.6 65.1156 7.6ZM98.1531 27.3C98.1531 28.3 98.2865 29.0333 98.5531 29.5C98.8531 29.9667 99.3198 30.3167 99.9531 30.55L98.3031 35.7C96.6698 35.5667 95.3365 35.2167 94.3031 34.65C93.2698 34.05 92.4698 33.1167 91.9031 31.85C90.1698 34.5167 87.5031 35.85 83.9031 35.85C81.2698 35.85 79.1698 35.0833 77.6031 33.55C76.0365 32.0167 75.2531 30.0167 75.2531 27.55C75.2531 24.65 76.3198 22.4333 78.4531 20.9C80.5865 19.3667 83.6698 18.6 87.7031 18.6H90.4031V17.45C90.4031 15.8833 90.0698 14.8167 89.4031 14.25C88.7365 13.65 87.5698 13.35 85.9031 13.35C85.0365 13.35 83.9865 13.4833 82.7531 13.75C81.5198 13.9833 80.2531 14.3167 78.9531 14.75L77.1531 9.55C78.8198 8.91667 80.5198 8.43333 82.2531 8.1C84.0198 7.76666 85.6531 7.6 87.1531 7.6C90.9531 7.6 93.7365 8.38333 95.5031 9.95C97.2698 11.5167 98.1531 13.8667 98.1531 17V27.3ZM86.2031 30.2C88.0031 30.2 89.4031 29.35 90.4031 27.65V22.95H88.4531C86.6531 22.95 85.3031 23.2667 84.4031 23.9C83.5365 24.5333 83.1031 25.5167 83.1031 26.85C83.1031 27.9167 83.3698 28.75 83.9031 29.35C84.4698 29.9167 85.2365 30.2 86.2031 30.2ZM113.307 7.6C115.207 7.6 116.991 7.88333 118.657 8.45C120.324 9.01667 121.791 9.81667 123.057 10.85L120.157 15.3C117.991 13.9333 115.807 13.25 113.607 13.25C112.574 13.25 111.774 13.4333 111.207 13.8C110.674 14.1333 110.407 14.6167 110.407 15.25C110.407 15.75 110.524 16.1667 110.757 16.5C111.024 16.8 111.541 17.1167 112.307 17.45C113.074 17.7833 114.257 18.1833 115.857 18.65C118.624 19.45 120.674 20.5 122.007 21.8C123.374 23.0667 124.057 24.8333 124.057 27.1C124.057 28.9 123.541 30.4667 122.507 31.8C121.474 33.1 120.057 34.1 118.257 34.8C116.457 35.5 114.457 35.85 112.257 35.85C110.024 35.85 107.941 35.5 106.007 34.8C104.107 34.1 102.491 33.1333 101.157 31.9L105.007 27.6C107.241 29.3333 109.591 30.2 112.057 30.2C113.257 30.2 114.191 29.9833 114.857 29.55C115.557 29.1167 115.907 28.5 115.907 27.7C115.907 27.0667 115.774 26.5667 115.507 26.2C115.241 25.8333 114.724 25.5 113.957 25.2C113.191 24.8667 111.974 24.4667 110.307 24C107.674 23.2333 105.707 22.1667 104.407 20.8C103.107 19.4333 102.457 17.7333 102.457 15.7C102.457 14.1667 102.891 12.8 103.757 11.6C104.657 10.3667 105.924 9.4 107.557 8.7C109.224 7.96667 111.141 7.6 113.307 7.6Z" fill="#141414"/>
</svg>
